<svg xmlns="http://www.w3.org/2000/svg" width="1200" height="630" viewBox="0 0 1200 630">
  <rect width="1200" height="630" fill="#f4f5f6"/>
  <rect x="826" width="374" height="630" fill="#2949ed"/>
  <g transform="translate(57 46) scale(1.4)" fill="#2949ed">
    <path d="M2 2h8v10L20 2h8L16 14l12 12h-9L10 17v9H2V2Z"/>
  </g>
  <g font-family="Arial, Helvetica, sans-serif" fill="#17191b">
    <text x="109" y="76" font-size="28" font-weight="700" letter-spacing="-1">koonrad.dev</text>
    <text x="56" y="239" font-size="89" font-weight="700" letter-spacing="-5">Konrad</text>
    <text x="56" y="337" font-size="89" font-weight="700" letter-spacing="-5">Straszewski.</text>
    <text x="61" y="432" font-size="33" font-weight="700" letter-spacing="-1" fill="#2949ed">TypeScript. Full-stack. AI.</text>
    <text x="61" y="483" font-size="23" fill="#666b75">I build products. I help teams ship.</text>
    <path d="M60 533H766" stroke="#d8dbdf"/>
    <text x="61" y="575" font-size="20" fill="#444954">AI Manager at Lendi</text>
    <text x="384" y="575" font-size="20" fill="#444954">Builder of jasne.ai</text>
  </g>
  <g transform="translate(837 133) scale(.88)" stroke-width="1.8">
    <path d="m78 219 122-70 122 70v29l-122 70-122-70v-29Z" fill="#aab7ff" stroke="#f4f5f6"/>
    <path d="m78 219 122 71 122-71-122-70-122 70Z" fill="#f4f5f6" stroke="#f4f5f6"/>
    <path d="M200 290v28" stroke="#2949ed"/>
    <path d="m78 148 122-70 122 70v29l-122 71-122-71v-29Z" fill="#3454f5" stroke="#f4f5f6"/>
    <path d="m78 148 122 71 122-71-122-70-122 70Z" fill="#2949ed" stroke="#f4f5f6"/>
    <path d="m108 148 92-53 92 53-92 54-92-54ZM200 219v29" fill="none" stroke="#f4f5f6"/>
    <path d="m78 77 122-70 122 70v29l-122 71-122-71V77Z" fill="#b3c940" stroke="#deef78"/>
    <path d="m78 77 122 71 122-71L200 7 78 77Z" fill="#deef78" stroke="#deef78"/>
    <path d="M200 148v29" stroke="#2949ed"/>
    <path d="m165 77 25 14 47-27" fill="none" stroke="#2949ed" stroke-width="5"/>
  </g>
  <g font-family="Arial, Helvetica, sans-serif" fill="#fff">
    <text x="866" y="72" font-size="14" letter-spacing="2">ALWAYS IN THE MAKING</text>
    <text x="866" y="507" font-size="39" font-weight="700" letter-spacing="-1.5">Think. Build.</text>
    <text x="866" y="552" font-size="39" font-weight="700" letter-spacing="-1.5">Ship. Repeat.</text>
  </g>
</svg>
