<?xml version="1.0" encoding="UTF-8"?>
<svg xmlns="http://www.w3.org/2000/svg" viewBox="0 0 200 200" width="512" height="512">
  <path d="M29.12 138.72L29.12 138.72Q28.64 140.88 29.28 142.16Q29.92 143.44 32.00 143.84L32.00 143.84L36.40 144.80Q37.92 145.28 38.72 146Q39.52 146.72 39.52 148L39.52 148Q39.52 149.44 38.24 150.24Q36.96 151.04 34.96 151.04L34.96 151.04L1.28 151.04Q-1.04 151.04-1.84 150.28Q-2.64 149.52-2.64 148.24L-2.64 148.24Q-2.72 146.96-1.76 146.12Q-0.80 145.28 0.88 144.88L0.88 144.88L5.76 144Q8.16 143.52 9.60 142.12Q11.04 140.72 11.92 138.08L11.92 138.08Q12.72 135.04 14.16 129.64Q15.60 124.24 17.52 117.36Q19.44 110.48 21.48 102.84Q23.52 95.20 25.56 87.52Q27.60 79.84 29.40 72.80Q31.20 65.76 32.56 60.20Q33.92 54.64 34.56 51.28L34.56 51.28Q35.12 48.96 34.48 47.76Q33.84 46.56 31.76 46.08L31.76 46.08L27.12 45.12Q25.44 44.64 24.72 43.92Q24.00 43.20 24.00 42.08L24.00 42.08Q24.00 40.64 25.44 39.84Q26.88 39.04 29.36 39.04L29.36 39.04L62.96 39.04Q64.96 39.04 65.76 39.72Q66.56 40.40 66.56 41.60L66.56 41.60Q66.56 43.04 65.60 43.76Q64.64 44.48 62.56 45.12L62.56 45.12L57.52 46.32Q55.36 46.72 54.04 47.84Q52.72 48.96 52.00 51.28L52.00 51.28Q51.04 54.80 49.40 60.68Q47.76 66.56 45.76 73.92Q43.76 81.28 41.60 89.28L41.60 89.28Q39.68 96.40 37.84 103.28L37.84 103.28L90.08 49.68Q94.56 45.12 98.24 42.36Q101.92 39.60 105.44 38.36Q108.96 37.12 112.80 37.12L112.80 37.12Q117.60 37.12 120.20 39.68Q122.80 42.24 122.56 46.00L122.56 46.00Q122.24 50.08 119.40 52.16Q116.56 54.24 112.56 54.24L112.56 54.24Q109.36 54.24 107.04 53.24Q104.72 52.24 101.84 52.24L101.84 52.24Q99.04 52.24 95.80 54.00Q92.56 55.76 88.80 59.68L88.80 59.68L66.48 82.24L86.08 132.72Q87.52 137.04 89.08 139.12Q90.64 141.20 93.12 141.20L93.12 141.20Q94.64 141.20 95.76 140.44Q96.88 139.68 97.92 138.24L97.92 138.24Q99.60 136.64 101.36 137.20L101.36 137.20Q102.40 137.44 102.84 138.56Q103.28 139.68 102.48 141.44L102.48 141.44Q100.96 144.96 98.36 147.52Q95.76 150.08 92.40 151.48Q89.04 152.88 85.04 152.88L85.04 152.88Q79.68 152.88 76.56 150.04Q73.44 147.20 71.12 140.72L71.12 140.72L53.76 95.04L35.04 114Q34.24 116.88 33.60 119.68L33.60 119.68Q31.84 126.48 30.64 131.44Q29.44 136.40 29.12 138.72Z M147.44 152.80L147.44 152.80Q140.40 152.80 135.80 151.48Q131.20 150.16 128.44 148.44Q125.68 146.72 124.12 145.36Q122.56 144 121.60 144L121.60 144Q120.72 144 119.60 145.24Q118.48 146.48 117.24 148.08Q116.00 149.68 114.72 150.92Q113.44 152.16 112.24 152.16L112.24 152.16Q110.32 152.16 109.40 151.12Q108.48 150.08 108.72 147.92L108.72 147.92L112.08 120.24Q112.24 118 113.32 116.84Q114.40 115.68 115.92 115.68L115.92 115.68Q117.52 115.68 118.52 116.76Q119.52 117.84 120.24 119.92L120.24 119.92L121.36 126.88Q122.40 136.40 128.68 141.40Q134.96 146.40 144.00 146.40L144.00 146.40Q150.00 146.40 154.60 144.20Q159.20 142 162.00 138.08Q164.80 134.16 165.60 128.88L165.60 128.88Q166.88 121.68 163.32 115.60Q159.76 109.52 149.04 102.64L149.04 102.64Q137.20 94.88 132.12 87.16Q127.04 79.44 128.32 69.04L128.32 69.04Q129.28 60.72 134.28 53.44Q139.28 46.16 148.24 41.64Q157.20 37.12 169.84 37.12L169.84 37.12Q180.56 37.12 187.96 40.56Q195.36 44.00 199.08 49.48Q202.80 54.96 202.64 61.04L202.64 61.04Q202.48 64.72 200.60 67.12Q198.72 69.52 195.52 69.52L195.52 69.52Q192.72 69.52 191.04 67.96Q189.36 66.40 188.24 63.12L188.24 63.12L186.88 57.68Q185.04 50.24 180.32 46.64Q175.60 43.04 168.64 43.04L168.64 43.04Q161.76 43.04 156.60 45.68Q151.44 48.32 148.36 52.72Q145.28 57.12 144.64 62.56L144.64 62.56Q143.60 70.40 147.60 76.72Q151.60 83.04 162.00 90.32L162.00 90.32Q171.04 96.40 175.92 101.76Q180.80 107.12 182.44 112.60Q184.08 118.08 183.36 124.40L183.36 124.40Q182.56 132.96 177.76 139.36Q172.96 145.76 165.16 149.28Q157.36 152.80 147.44 152.80Z" fill="#111111"/>
  <rect x="56" y="148" width="88" height="6" fill="#c4582a"/>
</svg>
