<svg width="100" height="24" viewBox="0 0 100 24" fill="none" xmlns="http://www.w3.org/2000/svg">
<path fill-rule="evenodd" clip-rule="evenodd" d="M2.4783 14.9274C2.4783 14.0908 2.56841 13.276 2.73993 12.4896H0V15.0127H2.4783V14.9274ZM27.4286 12.4896H24.6886C24.8601 13.276 24.9503 14.0908 24.9503 14.9274V15.0127H27.4286V12.4896ZM3.50524 10.1984C3.85913 9.42412 4.2966 8.69793 4.80789 8.0297L1.90188 6.61996L0.81525 8.8926L3.50524 10.1984ZM25.5277 6.61996L22.6217 8.0297C23.1319 8.69684 23.5705 9.42412 23.9244 10.1984L26.6143 8.8926L25.5277 6.61996ZM6.30812 6.41763C6.93665 5.86205 7.62598 5.37646 8.36632 4.97181L6.14311 2.16218L4.18479 3.73487L6.30812 6.41763ZM21.2865 2.16218L19.0623 4.97181C19.8026 5.37646 20.493 5.86205 21.1204 6.41763L23.2449 3.73487L21.2865 2.16218ZM10.2563 4.15484C11.0401 3.89892 11.8618 3.7283 12.7107 3.65284L11.8835 0L9.44205 0.561051L10.2563 4.15484ZM15.5451 0L14.7178 3.65284C15.5667 3.7283 16.3885 3.89892 17.1734 4.15484L17.9876 0.561051L15.5451 0ZM5.14285 15.2425C5.14285 10.4092 8.98365 6.48508 13.7142 6.48508C18.4449 6.48508 22.2857 10.4092 22.2857 15.2425C22.2857 20.0758 18.4449 24 13.7142 24C8.98365 24 5.14285 20.0758 5.14285 15.2425ZM13.7142 21.7124C11.4862 21.7124 9.52613 20.5346 8.39703 18.7556C11.8425 20.1457 15.3711 20.1804 18.9733 18.8451C17.8366 20.5738 15.9046 21.7124 13.7142 21.7124ZM20.0467 15.2425C20.0467 15.4641 20.0358 15.683 20.0141 15.8987L20.0103 15.9007C15.7882 18.0536 11.68 18.0621 7.70551 15.9131L7.40101 15.749C7.38822 15.5817 7.38183 15.4131 7.38183 15.2425C7.38183 11.6719 10.2189 8.77264 13.7142 8.77264C17.209 8.77264 20.0467 11.6719 20.0467 15.2425Z" fill="#312319"/>
<path d="M86.9624 19.616C85.9922 19.616 85.2273 19.363 84.6678 18.8571C84.1142 18.3452 83.8374 17.6458 83.8374 16.7588C83.8374 16.1517 84.0011 15.619 84.3285 15.1606C84.6618 14.6963 85.1499 14.3362 85.7928 14.0803C86.4416 13.8184 87.2303 13.6874 88.1588 13.6874H89.5338V12.9285C89.5338 12.4404 89.388 12.0475 89.0963 11.7499C88.8106 11.4523 88.388 11.3035 87.8285 11.3035C87.5249 11.3035 87.2511 11.3422 87.007 11.4196C86.769 11.491 86.5547 11.5952 86.3642 11.7321L86.1588 13.0267H84.391L84.3731 10.5803C84.8612 10.2827 85.3969 10.0446 85.9803 9.86599C86.5695 9.68146 87.2243 9.5892 87.9445 9.5892C89.1886 9.5892 90.1678 9.88087 90.882 10.4642C91.6023 11.0416 91.9624 11.8719 91.9624 12.9553V17.0713C91.9624 17.2023 91.9624 17.3303 91.9624 17.4553C91.9684 17.5803 91.9803 17.7023 91.9981 17.8213L92.9892 17.9642V19.4285H89.9088C89.8434 19.244 89.7809 19.0565 89.7213 18.866C89.6678 18.6696 89.6291 18.4731 89.6053 18.2767C89.2898 18.6755 88.9118 18.9999 88.4713 19.2499C88.0368 19.494 87.5338 19.616 86.9624 19.616ZM87.5606 17.7856C87.9713 17.7856 88.3553 17.6904 88.7124 17.4999C89.0755 17.3094 89.3493 17.0684 89.5338 16.7767V15.2053H88.1499C87.5249 15.2053 87.0517 15.3511 86.7303 15.6428C86.4148 15.9285 86.257 16.2678 86.257 16.6606C86.257 17.0178 86.3701 17.2946 86.5963 17.491C86.8225 17.6874 87.144 17.7856 87.5606 17.7856Z" fill="#312319"/>
<path d="M74.9167 19.616C74 19.616 73.1995 19.4136 72.5149 19.0088C71.8364 18.5981 71.3096 18.0356 70.9346 17.3213C70.5596 16.6011 70.3721 15.7797 70.3721 14.8571V14.491C70.3721 13.5446 70.5506 12.7023 70.9078 11.9642C71.2709 11.2202 71.7768 10.6398 72.4256 10.2231C73.0745 9.80051 73.8245 9.5892 74.6756 9.5892C75.5506 9.5892 76.2858 9.7648 76.881 10.116C77.4762 10.4612 77.9256 10.9583 78.2292 11.6071C78.5328 12.2559 78.6846 13.0356 78.6846 13.9463V15.2946H72.8899L72.8721 15.3481C72.8959 15.8124 73 16.2261 73.1846 16.5892C73.3691 16.9463 73.628 17.2291 73.9614 17.4374C74.2947 17.6458 74.6995 17.7499 75.1756 17.7499C75.6816 17.7499 76.1429 17.6844 76.5596 17.5535C76.9822 17.4225 77.384 17.2291 77.7649 16.9731L78.4614 18.4821C78.0745 18.8035 77.5834 19.0743 76.9881 19.2946C76.3929 19.5088 75.7024 19.616 74.9167 19.616ZM72.9167 13.6428H76.3989V13.4106C76.3989 13.0059 76.3393 12.6547 76.2203 12.3571C76.1012 12.0535 75.9167 11.8184 75.6667 11.6517C75.4227 11.485 75.1042 11.4017 74.7114 11.4017C74.3542 11.4017 74.0477 11.4999 73.7917 11.6963C73.5358 11.8868 73.3334 12.1487 73.1846 12.4821C73.0358 12.8094 72.9375 13.1815 72.8899 13.5981L72.9167 13.6428Z" fill="#312319"/>
<path d="M58.2058 19.4285V17.9642L59.5004 17.6963V11.5088L58.1075 11.241V9.76777H61.7504L61.8665 11.1606C62.1879 10.6666 62.5867 10.2827 63.0629 10.0088C63.545 9.72908 64.0897 9.5892 64.6968 9.5892C65.6671 9.5892 66.426 9.89575 66.9736 10.5088C67.5272 11.116 67.804 12.0713 67.804 13.3749V17.6963L69.0986 17.9642V19.4285H64.179V17.9642L65.3665 17.6963V13.3928C65.3665 12.7023 65.2296 12.2142 64.9558 11.9285C64.6819 11.6368 64.2742 11.491 63.7325 11.491C63.3278 11.491 62.9736 11.5803 62.67 11.7588C62.3724 11.9315 62.1254 12.1785 61.929 12.4999V17.6963L63.0718 17.9642V19.4285H58.2058Z" fill="#312319"/>
<path d="M52.5454 19.616C51.837 19.616 51.1763 19.5505 50.5632 19.4196C49.9561 19.2827 49.3609 19.0833 48.7775 18.8214L48.7507 16.1785H50.465L50.8043 17.5714C51.0364 17.6785 51.2805 17.7618 51.5364 17.8214C51.7924 17.8809 52.0811 17.9106 52.4025 17.9106C53.0156 17.9106 53.4472 17.8095 53.6972 17.6071C53.9531 17.3987 54.0811 17.1398 54.0811 16.8303C54.0811 16.5327 53.9472 16.2767 53.6793 16.0624C53.4114 15.8422 52.8936 15.6517 52.1257 15.491C50.9769 15.247 50.1317 14.8809 49.59 14.3928C49.0484 13.8987 48.7775 13.2678 48.7775 12.4999C48.7775 11.9642 48.9144 11.4791 49.1882 11.0446C49.468 10.61 49.8847 10.2618 50.4382 9.99993C50.9918 9.73207 51.6853 9.59814 52.5186 9.59814C53.2507 9.59814 53.9085 9.67255 54.4918 9.82136C55.0811 9.97017 55.5781 10.1606 55.9829 10.3928L56.0275 12.9464H54.3222L54.0454 11.6785C53.8728 11.5535 53.6704 11.4583 53.4382 11.3928C53.2061 11.3214 52.9442 11.2856 52.6525 11.2856C52.1763 11.2856 51.8043 11.3868 51.5364 11.5892C51.2745 11.7916 51.1436 12.0475 51.1436 12.3571C51.1436 12.5356 51.1882 12.6993 51.2775 12.8481C51.3668 12.997 51.5394 13.1368 51.7954 13.2678C52.0573 13.3928 52.4382 13.5118 52.9382 13.6249C54.1644 13.9047 55.0484 14.2767 55.59 14.741C56.1376 15.2053 56.4114 15.8362 56.4114 16.6339C56.4114 17.5148 56.09 18.2321 55.4472 18.7856C54.8103 19.3392 53.843 19.616 52.5454 19.616Z" fill="#312319"/>
<path d="M41.0278 19.616C40.0576 19.616 39.2927 19.363 38.7332 18.8571C38.1796 18.3452 37.9028 17.6458 37.9028 16.7588C37.9028 16.1517 38.0665 15.619 38.3939 15.1606C38.7272 14.6963 39.2153 14.3362 39.8582 14.0803C40.507 13.8184 41.2957 13.6874 42.2243 13.6874H43.5993V12.9285C43.5993 12.4404 43.4534 12.0475 43.1618 11.7499C42.876 11.4523 42.4534 11.3035 41.8939 11.3035C41.5903 11.3035 41.3165 11.3422 41.0725 11.4196C40.8344 11.491 40.6201 11.5952 40.4296 11.7321L40.2243 13.0267H38.4564L38.4385 10.5803C38.9266 10.2827 39.4624 10.0446 40.0457 9.86599C40.635 9.68146 41.2897 9.5892 42.01 9.5892C43.254 9.5892 44.2332 9.88087 44.9475 10.4642C45.6677 11.0416 46.0278 11.8719 46.0278 12.9553V17.0713C46.0278 17.2023 46.0278 17.3303 46.0278 17.4553C46.0338 17.5803 46.0457 17.7023 46.0635 17.8213L47.0546 17.9642V19.4285H43.9743C43.9088 19.244 43.8463 19.0565 43.7868 18.866C43.7332 18.6696 43.6945 18.4731 43.6707 18.2767C43.3552 18.6755 42.9772 18.9999 42.5368 19.2499C42.1022 19.494 41.5993 19.616 41.0278 19.616ZM41.626 17.7856C42.0368 17.7856 42.4207 17.6904 42.7778 17.4999C43.1409 17.3094 43.4147 17.0684 43.5993 16.7767V15.2053H42.2153C41.5903 15.2053 41.1171 15.3511 40.7957 15.6428C40.4802 15.9285 40.3225 16.2678 40.3225 16.6606C40.3225 17.0178 40.4356 17.2946 40.6618 17.491C40.888 17.6874 41.2094 17.7856 41.626 17.7856Z" fill="#312319"/>
<path d="M81.2252 19.4285C81.925 19.4285 82.4923 18.8502 82.4923 18.1504C82.4923 17.4506 81.925 16.8723 81.2252 16.8723C80.5254 16.8723 79.9581 17.4506 79.9581 18.1504C79.9581 18.8502 80.5254 19.4285 81.2252 19.4285Z" fill="#312319"/>
<path d="M32.5015 23.3303C32.2694 23.3303 32.0581 23.3184 31.8676 23.2946C31.6771 23.2708 31.4807 23.2321 31.2783 23.1785L31.4033 21.3392C31.5224 21.369 31.6593 21.3958 31.814 21.4196C31.9747 21.4434 32.1295 21.4553 32.2783 21.4553C32.6236 21.4553 32.8914 21.3154 33.0819 21.0356C33.2783 20.7618 33.3765 20.3779 33.3765 19.8839V11.5089L31.9658 11.241V9.76779H35.7962V19.8839C35.7962 20.9851 35.5045 21.8333 34.9212 22.4285C34.3438 23.0297 33.5372 23.3303 32.5015 23.3303Z" fill="#312319"/>
<path d="M34.5558 8.07366C35.3711 8.07366 36.0321 7.39988 36.0321 6.58453C36.0321 5.76918 35.3711 5.0954 34.5558 5.0954C33.7404 5.0954 33.0795 5.76918 33.0795 6.58453C33.0795 7.39988 33.7404 8.07366 34.5558 8.07366Z" fill="#312319"/>
<path d="M94.4412 19.4285V17.9642L95.7359 17.6964V11.5089L94.3341 11.241V9.76779H98.1645V17.6964L99.4591 17.9642V19.4285H94.4412Z" fill="#312319"/>
<path d="M96.8966 7.98917C97.6657 7.98917 98.2892 7.35361 98.2892 6.58452C98.2892 5.81543 97.6657 5.17987 96.8966 5.17987C96.1275 5.17987 95.504 5.81543 95.504 6.58452C95.504 7.35361 96.1275 7.98917 96.8966 7.98917Z" fill="#312319"/>
</svg>
